<svg id="Layer_7" data-name="Layer 7" xmlns="http://www.w3.org/2000/svg" viewBox="0 0 1920 1080"><defs><style>.cls-1{fill:#173ea0;}.cls-1,.cls-2,.cls-3,.cls-4,.cls-5{stroke:#000;stroke-miterlimit:10;}.cls-2{fill:none;}.cls-4{fill:#cf0024;}.cls-5{fill:#ffde00;}</style></defs><path class="cls-1" d="M940.53,244.37A205.69,205.69,0,0,0,837.64,422.62V627.17l-.42.42V216.84h.42A204.83,204.83,0,0,1,940.53,244.37Z"/><polygon class="cls-2" points="837.22 627.59 837.64 627.17 837.64 628.39 837.03 628.39 837.03 627.78 837.22 627.59"/><path class="cls-2" d="M1043.42,422.31v.31h-1.23l.31-.31h.31V406.67Q1043.41,414.41,1043.42,422.31Z"/><rect class="cls-2" x="837.22" y="728.06" width="0.42" height="205.78"/><polygon class="cls-1" points="1042.19 422.62 837.64 627.17 837.64 422.62 1042.19 422.62"/><path class="cls-2" d="M1043.42,422.62V728.06H837.64V628.39C951.29,628.39,1043.42,536.27,1043.42,422.62Z"/><path class="cls-1" d="M837.22,216.84V627.59l-.19.19v.61c-113.37-.33-205.17-92.32-205.17-205.77S723.76,217.07,837.22,216.84Z"/><path class="cls-3" d="M837.22,933.84H631.44V512.48H487V399.85a205.86,205.86,0,0,0,183.31-183H837.22c-113.46.23-205.36,92.27-205.36,205.78S723.66,628.06,837,628.39v99.67H631.86C631.86,841.57,723.76,933.61,837.22,933.84Z"/><path class="cls-1" d="M837.22,728.06V933.84c-113.46-.23-205.36-92.27-205.36-205.78Z"/><polygon class="cls-2" points="837.22 627.59 837.22 728.06 837.03 728.06 837.03 627.78 837.22 627.59"/><path class="cls-4" d="M1042.81,406.67v15.64h-.31l-.31.31H837.64A205.69,205.69,0,0,1,940.53,244.37,205.77,205.77,0,0,1,1042.81,406.67Z"/><path class="cls-4" d="M1042.81,216.84V406.67a205.77,205.77,0,0,0-102.28-162.3A204.88,204.88,0,0,1,1042.81,216.84Z"/><path class="cls-2" d="M1249.2,422.62h-207l.31-.31h.31V406.67q.6,7.74.61,15.64Z"/><polygon class="cls-4" points="943.92 728.06 837.64 834.34 837.64 728.06 943.92 728.06"/><polygon class="cls-4" points="1249.2 728.06 1249.2 933.84 960 933.84 1159.66 728.06 1249.2 728.06"/><path class="cls-5" d="M1455.13,216.84,1249.35,422.62h-.15c0-113.65-92.13-205.78-205.78-205.78Z"/><path class="cls-4" d="M1249.2,422.62l-205.78-.31q0-7.89-.61-15.64V216.84h.61C1157.07,216.84,1249.2,309,1249.2,422.62Z"/><path class="cls-2" d="M1249.2,422.62H1042.81V406.67q.6,7.74.61,15.64Z"/><polygon class="cls-2" points="1456.01 216.84 1456.01 422.62 1455.13 216.84 1456.01 216.84"/><path class="cls-1" d="M1043.42,728.06c0,113.65-92.13,205.78-205.78,205.78v-99.5L943.92,728.06Z"/><polygon class="cls-2" points="837.64 834.34 837.64 933.84 837.22 933.84 837.22 834.76 837.64 834.34"/><path class="cls-5" d="M1159.66,728.06,960,933.84H837.64c113.65,0,205.78-92.13,205.78-205.78Z"/><polygon class="cls-1" points="1043.42 628.56 1043.42 728.06 943.92 728.06 1043.42 628.56"/><polygon class="cls-5" points="1456.01 422.62 1159.66 728.06 1043.42 728.06 1043.42 628.56 1249.35 422.62 1455.13 216.84 1456.01 422.62"/><path class="cls-4" d="M1043.42,422.62c0,113.65-92.13,205.77-205.78,205.77v-1.22l204.55-204.55Z"/><path class="cls-4" d="M1249.2,422.62,1043.42,628.39l-99.67,99.67H837V627.78l.19-.19.42-.42v1.22c113.65,0,205.78-92.12,205.78-205.77h-1.23l.31-.31h.92Z"/></svg>