<svg id="Laag_1" data-name="Laag 1" xmlns="http://www.w3.org/2000/svg" viewBox="0 0 1080 1080"><defs><style>.cls-1{fill:#cf0024;}</style></defs><rect class="cls-1" x="260.95" y="332.68" width="625.89" height="625.89" transform="translate(-248.56 909.76) rotate(-66.17)"/><path d="M349.27,172.47c-6.81-.46-10.34-1.21-14-2.83-9.86-4.35-15.53-11.53-18.18-18.19a32.51,32.51,0,0,1,.54-24.46,32.54,32.54,0,0,1,43.17-16.51,38.5,38.5,0,0,1,12,8.75L365,136.84A17.26,17.26,0,0,0,354.91,125a15.72,15.72,0,0,0-11.86-.77,16.53,16.53,0,0,0-1.55,31.13c2.21,1,7.77,3.12,15.47-.28Z"/><path d="M397.71,127.91,382.88,161.5c-1.06,2.38-2.59,6.07-1,10a11.42,11.42,0,0,0,13.66,6.34c4.72-1.48,6.48-5.68,7.86-8.83l14.28-32.32,14.71,6.5L418,175.8c-2.62,6-5.62,12-14.49,15.56-6.9,2.74-13.83,2.32-21.82-1.21-8.93-3.94-14-9.82-15.79-15.1-2.57-7.54,0-15,2.69-21.07L383,121.41Z"/><path d="M459,155l-19.54,44.22L457.18,207l-5.52,12.5-32.4-14.31,25.05-56.72Z"/><path d="M494.92,185.78,475.39,230l-14.72-6.5,19.54-44.22L468.13,174l5.52-12.51,38.87,17.17L507,191.11Z"/><path d="M533.77,188l-14.83,33.59c-1.05,2.38-2.58,6.08-1,10A11.42,11.42,0,0,0,531.62,238c4.72-1.47,6.48-5.68,7.87-8.82l14.27-32.32,14.71,6.5L554.09,235.9c-2.63,5.95-5.63,12-14.49,15.55-6.91,2.74-13.84,2.33-21.83-1.2-8.93-3.95-14-9.83-15.79-15.11-2.57-7.54,0-15,2.7-21.07l14.38-32.57Z"/><path d="M603.34,218.72c4.25,1.88,9.39,5,11.64,11.14a20.4,20.4,0,0,1-.78,14.9,17.87,17.87,0,0,1-9.73,9.83,17.4,17.4,0,0,1-9.55.46l7.52,31.07L584.15,278l-4.5-28L570,271.81l-14.71-6.5,25.06-56.73Zm-19.48,21.79,2.8,1.24c2.21,1,5.62,1.77,8.16.86a7.72,7.72,0,0,0,4-3.94,7.32,7.32,0,0,0,.14-5.63c-.76-2-2.85-3.9-6.08-5.32l-2.81-1.24Z"/><path d="M660.41,258.87l-17.52-7.74-4.17,9.44,16.58,7.33-5.52,12.5-16.58-7.33-4.32,9.78,17.52,7.74-5.53,12.5-32.23-14.23,25.06-56.73,32.23,14.24Z"/><path d="M450,95c-6.8-.47-10.33-1.21-14-2.83-9.87-4.36-15.54-11.53-18.19-18.19a32.55,32.55,0,0,1,.54-24.46A33.21,33.21,0,0,1,436.21,32.4a32.87,32.87,0,0,1,25.34.62,38.38,38.38,0,0,1,12,8.75l-7.78,17.61a17.22,17.22,0,0,0-10.1-11.88,15.7,15.7,0,0,0-11.85-.77,17.3,17.3,0,0,0-10.08,9.47,17.1,17.1,0,0,0-.29,13.09,17.34,17.34,0,0,0,8.81,8.57c2.21,1,7.77,3.12,15.48-.28Z"/><path d="M397.69,127.89l-14.83,33.59c-1.05,2.39-2.59,6.08-1,10a11.42,11.42,0,0,0,13.66,6.34c4.72-1.47,6.48-5.68,7.87-8.82l14.27-32.32,14.71,6.5L418,175.79c-2.63,6-5.63,12.05-14.5,15.55-6.9,2.75-13.83,2.33-21.82-1.2-8.93-3.95-14-9.83-15.79-15.11-2.57-7.53,0-15,2.69-21.06L383,121.39Z"/><path d="M363.29,234.65l-19.53,44.23,17.69,7.81-5.52,12.5-32.4-14.31,25.05-56.73Z"/><path d="M319.38,352.15l-19.54,44.23-14.71-6.5,19.53-44.23-12.07-5.33,5.52-12.5L337,345l-5.52,12.51Z"/><path d="M262.48,434l-14.84,33.59c-1,2.38-2.58,6.08-1,10A11.43,11.43,0,0,0,260.33,484c4.71-1.48,6.47-5.68,7.86-8.83l14.27-32.32,14.72,6.5-14.39,32.58c-2.63,5.95-5.63,12-14.49,15.55-6.91,2.74-13.84,2.32-21.83-1.21-8.93-3.94-14-9.82-15.79-15.1-2.57-7.54,0-15,2.7-21.07l14.38-32.57Z"/><path d="M229.65,541.5c4.25,1.87,9.4,5,11.65,11.14a20.43,20.43,0,0,1-.79,14.89,17.87,17.87,0,0,1-9.73,9.83,17.4,17.4,0,0,1-9.55.46l7.52,31.07-18.28-8.08-4.51-28-9.61,21.77-14.72-6.5,25.06-56.73Zm-19.48,21.78,2.81,1.24c2.21,1,5.62,1.77,8.15.86a7.72,7.72,0,0,0,4-3.94,7.3,7.3,0,0,0,.15-5.62c-.76-2-2.85-3.9-6.09-5.33l-2.8-1.24Z"/><path d="M194.19,662.73,176.67,655l-4.16,9.44,16.58,7.33-5.52,12.5L167,676.94l-4.32,9.78,17.52,7.73L174.66,707l-32.23-14.24,25-56.73,32.24,14.24Z"/></svg>