<svg xmlns="http://www.w3.org/2000/svg" xmlns:xlink="http://www.w3.org/1999/xlink" width="1920" height="389" viewBox="0 0 1920 389">
  <defs>
    <clipPath id="clip-path">
      <rect id="Rectangle_1355" data-name="Rectangle 1355" width="1920" height="389" transform="translate(0 9475)" fill="#fff" stroke="#707070" stroke-width="1"/>
    </clipPath>
  </defs>
  <g id="Mask_Group_1" data-name="Mask Group 1" transform="translate(0 -9475)" clip-path="url(#clip-path)">
    <g id="footer" transform="translate(-173.006 1307.177)">
      <g id="Rectangle_732" data-name="Rectangle 732" transform="translate(0 8278)" stroke="#707070" stroke-width="1">
        <rect width="2219" height="283" stroke="none"/>
        <rect x="0.5" y="0.5" width="2218" height="282" fill="none"/>
      </g>
      <g id="Path_1226" data-name="Path 1226" transform="translate(119 8178)" fill="none">
        <path d="M289.553,0C449.469,0,579.107,129.638,579.107,289.553S449.469,579.107,289.553,579.107,0,449.469,0,289.553,129.638,0,289.553,0Z" stroke="none"/>
        <path d="M 289.553466796875 9.99993896484375 C 135.4071350097656 9.99993896484375 9.99993896484375 135.4071350097656 9.99993896484375 289.553466796875 C 9.99993896484375 443.69970703125 135.4071350097656 569.1068725585938 289.553466796875 569.1068725585938 C 443.69970703125 569.1068725585938 569.1068725585938 443.69970703125 569.1068725585938 289.553466796875 C 569.1068725585938 135.4071350097656 443.69970703125 9.99993896484375 289.553466796875 9.99993896484375 M 289.553466796875 -6.103515625e-05 C 449.4693908691406 -6.103515625e-05 579.1068725585938 129.6374816894531 579.1068725585938 289.553466796875 C 579.1068725585938 449.4693908691406 449.4693908691406 579.1068725585938 289.553466796875 579.1068725585938 C 129.6374816894531 579.1068725585938 -6.103515625e-05 449.4693908691406 -6.103515625e-05 289.553466796875 C -6.103515625e-05 129.6374816894531 129.6374816894531 -6.103515625e-05 289.553466796875 -6.103515625e-05 Z" stroke="none" fill="#fade4b"/>
      </g>
      <g id="Group_139" data-name="Group 139" transform="translate(235.006 859.5)">
        <text id="A_longread_by_Slanted_" data-name="A longread by Slanted " transform="translate(639 7577)" fill="#fff" font-size="50" font-family="FuturaPT-Heavy, Futura PT" font-weight="800"><tspan x="0" y="0">A longread by Slanted </tspan></text>
      </g>
      <g id="Rectangle_733" data-name="Rectangle 733" transform="translate(146 8201)" fill="none" stroke="#cf0024" stroke-width="5">
        <rect width="155" height="155" stroke="none"/>
        <rect x="2.5" y="2.5" width="150" height="150" fill="none"/>
      </g>
      <g id="Rectangle_734" data-name="Rectangle 734" transform="translate(423.5 8301) rotate(90)" fill="none" stroke="#173ea0" stroke-width="3">
        <rect width="50" height="175" stroke="none"/>
        <rect x="1.5" y="1.5" width="47" height="172" fill="none"/>
      </g>
      <g id="Path_1227" data-name="Path 1227" transform="translate(1417.987 8201)" fill="none">
        <path d="M424.013,0C658.188,0,848.025,189.837,848.025,424.013S658.188,848.025,424.013,848.025,0,658.188,0,424.013,189.837,0,424.013,0Z" stroke="none"/>
        <path d="M 424.0126953125 4 C 409.6838073730469 4 395.2337951660156 4.72967529296875 381.0640258789062 6.168701171875 C 367.1004638671875 7.5867919921875 353.069580078125 9.7281494140625 339.3612365722656 12.53326416015625 C 325.8306884765625 15.302001953125 312.2889404296875 18.783935546875 299.1122436523438 22.88238525390625 C 286.0830078125 26.934814453125 273.1007080078125 31.68634033203125 260.5260009765625 37.0050048828125 C 235.6393432617188 47.53125 211.6359252929688 60.5599365234375 189.182373046875 75.729248046875 C 166.941162109375 90.755126953125 146.0262451171875 108.011474609375 127.0189208984375 127.0189208984375 C 108.011474609375 146.0262451171875 90.755126953125 166.941162109375 75.729248046875 189.182373046875 C 60.5599365234375 211.6359252929688 47.53125 235.6393432617188 37.0050048828125 260.5260009765625 C 31.68634033203125 273.1007080078125 26.934814453125 286.0830078125 22.88238525390625 299.1122436523438 C 18.783935546875 312.2889404296875 15.302001953125 325.8306884765625 12.53326416015625 339.3612365722656 C 9.7281494140625 353.069580078125 7.5867919921875 367.1004638671875 6.168701171875 381.0640258789062 C 4.72967529296875 395.2337951660156 4 409.6838073730469 4 424.0126953125 C 4 438.3415832519531 4.72967529296875 452.7915954589844 6.168701171875 466.9613647460938 C 7.5867919921875 480.9249267578125 9.7281494140625 494.9556884765625 12.53326416015625 508.6641540527344 C 15.302001953125 522.1947021484375 18.783935546875 535.736328125 22.88238525390625 548.9130249023438 C 26.934814453125 561.9423828125 31.68634033203125 574.924560546875 37.0050048828125 587.4993896484375 C 47.53125 612.3859252929688 60.5599365234375 636.3893432617188 75.729248046875 658.8428955078125 C 90.755126953125 681.084228515625 108.011474609375 701.9990234375 127.0189208984375 721.0064697265625 C 146.0262451171875 740.013916015625 166.941162109375 757.270263671875 189.182373046875 772.296142578125 C 211.6359252929688 787.4654541015625 235.6393432617188 800.494140625 260.5260009765625 811.0203857421875 C 273.1007080078125 816.3390502929688 286.0830078125 821.090576171875 299.1122436523438 825.1430053710938 C 312.2889404296875 829.241455078125 325.8306884765625 832.723388671875 339.3612365722656 835.4921264648438 C 353.069580078125 838.2972412109375 367.1004638671875 840.4385986328125 381.0640258789062 841.856689453125 C 395.2337951660156 843.2957153320312 409.6838073730469 844.025390625 424.0126953125 844.025390625 C 438.3415832519531 844.025390625 452.7915954589844 843.2957153320312 466.9613647460938 841.856689453125 C 480.9249267578125 840.4385986328125 494.9556884765625 838.2972412109375 508.6641540527344 835.4921264648438 C 522.1947021484375 832.723388671875 535.736328125 829.241455078125 548.9130249023438 825.1430053710938 C 561.9423828125 821.090576171875 574.924560546875 816.3390502929688 587.4993896484375 811.0203857421875 C 612.3859252929688 800.494140625 636.3893432617188 787.4654541015625 658.8428955078125 772.296142578125 C 681.084228515625 757.270263671875 701.9990234375 740.013916015625 721.0064697265625 721.0064697265625 C 740.013916015625 701.9990234375 757.270263671875 681.084228515625 772.296142578125 658.8428955078125 C 787.4654541015625 636.3893432617188 800.494140625 612.3859252929688 811.0203857421875 587.4993896484375 C 816.3390502929688 574.924560546875 821.090576171875 561.9423828125 825.1430053710938 548.9130249023438 C 829.241455078125 535.736328125 832.723388671875 522.1947021484375 835.4921264648438 508.6641540527344 C 838.2972412109375 494.9556884765625 840.4385986328125 480.9249267578125 841.856689453125 466.9613647460938 C 843.2957153320312 452.7915954589844 844.025390625 438.3415832519531 844.025390625 424.0126953125 C 844.025390625 409.6838073730469 843.2957153320312 395.2337951660156 841.856689453125 381.0640258789062 C 840.4385986328125 367.1004638671875 838.2972412109375 353.069580078125 835.4921264648438 339.3612365722656 C 832.723388671875 325.8306884765625 829.241455078125 312.2889404296875 825.1430053710938 299.1122436523438 C 821.090576171875 286.0830078125 816.3390502929688 273.1007080078125 811.0203857421875 260.5260009765625 C 800.494140625 235.6393432617188 787.4654541015625 211.6359252929688 772.296142578125 189.182373046875 C 757.270263671875 166.941162109375 740.013916015625 146.0262451171875 721.0064697265625 127.0189208984375 C 701.9990234375 108.011474609375 681.084228515625 90.755126953125 658.8428955078125 75.729248046875 C 636.3893432617188 60.5599365234375 612.3859252929688 47.53125 587.4993896484375 37.0050048828125 C 574.924560546875 31.68634033203125 561.9423828125 26.934814453125 548.9130249023438 22.88238525390625 C 535.736328125 18.783935546875 522.1947021484375 15.302001953125 508.6641540527344 12.53326416015625 C 494.9556884765625 9.7281494140625 480.9249267578125 7.5867919921875 466.9613647460938 6.168701171875 C 452.7915954589844 4.72967529296875 438.3415832519531 4 424.0126953125 4 M 424.0126953125 0 C 658.1883544921875 0 848.025390625 189.8369140625 848.025390625 424.0126953125 C 848.025390625 658.1883544921875 658.1883544921875 848.025390625 424.0126953125 848.025390625 C 189.8369140625 848.025390625 0 658.1883544921875 0 424.0126953125 C 0 189.8369140625 189.8369140625 0 424.0126953125 0 Z" stroke="none" fill="#be272d"/>
      </g>
    </g>
  </g>
</svg>
