<svg id="Laag_4" data-name="Laag 4" xmlns="http://www.w3.org/2000/svg" viewBox="0 0 2160 2160"><defs><style>.cls-1,.cls-6{fill:#fff;}.cls-1,.cls-2,.cls-5{stroke:#000;stroke-miterlimit:10;}.cls-1{stroke-width:21px;}.cls-3{fill:#173ea0;}.cls-4{fill:#cf0024;}.cls-5{fill:none;stroke-width:20px;}</style></defs><circle class="cls-1" cx="689.5" cy="760.35" r="134.02"/><rect class="cls-2" x="518.83" y="608.5" width="426.58" height="108.24"/><rect class="cls-2" x="405.3" y="655.93" width="178.9" height="108.24" transform="translate(-357.17 557.81) rotate(-45)"/><rect class="cls-2" x="806.33" y="848.19" width="562.6" height="108.24" transform="translate(185.32 1989.94) rotate(-90)"/><circle class="cls-3" cx="962.06" cy="1184.04" r="46.96"/><circle class="cls-3" cx="1158.54" cy="1183.17" r="46.96"/><rect class="cls-2" x="755.62" y="899.18" width="609.76" height="53.88" transform="translate(134.38 1986.62) rotate(-90)"/><polygon class="cls-2" points="964 1270 771.5 1462.5 1405.5 1462.5 1212.06 1269.06 964 1270"/><rect class="cls-4" x="830.5" y="1507.5" width="494" height="50"/><polygon class="cls-4" points="1167 1483 1088.35 1530.77 987 1531 987 1483 1167 1483"/><rect class="cls-4" x="745.36" y="1542.3" width="121.02" height="50" transform="translate(-872.21 1028.89) rotate(-45)"/><path class="cls-5" d="M1088,417.5c364.78,0,660.5,295.72,660.5,660.5s-295.72,660.5-660.5,660.5"/><rect class="cls-2" x="1043.5" y="1728.5" width="88" height="38"/><circle class="cls-4" cx="740" cy="791" r="54.5"/><circle class="cls-2" cx="745" cy="794" r="21.5"/><circle class="cls-6" cx="729.5" cy="781.5" r="16"/><polygon points="1090.42 1662 1071 1628.37 1051.58 1594.73 1090.42 1594.73 1129.26 1594.73 1109.84 1628.37 1090.42 1662"/><rect class="cls-2" x="991.5" y="1581.5" width="137.73" height="12.89"/></svg>