<svg id="Layer_3" data-name="Layer 3" xmlns="http://www.w3.org/2000/svg" viewBox="0 0 215 600"><defs><style>.cls-1,.cls-4{fill:#fdf7ea;}.cls-2,.cls-4,.cls-5{stroke:#000;stroke-miterlimit:10;stroke-width:2px;}.cls-3{fill:#fff;}.cls-5{fill:none;}</style></defs><circle class="cls-1" cx="107.22" cy="492.6" r="85.21"/><polygon class="cls-2" points="157.77 486.25 106.51 486.25 53.56 486.25 3.5 19.08 209.52 19.08 157.77 486.25"/><rect class="cls-2" x="24.86" y="334.76" width="170.42" height="43.2"/><path class="cls-3" d="M55.77,281.18l-.07-25.77h6c3.44,0,6.12.9,8,2.75q3.78,3.6,3.8,10.12t-3.17,9.9c-1.8,2-4.51,3-8.1,3Zm6.95-6.24q3.73-.19,3.72-6.45a10.43,10.43,0,0,0-1-4.87,2.87,2.87,0,0,0-2.57-1.8h-.22Z"/><path class="cls-3" d="M76.55,281.13l-.07-25.77,12.94,0v6.06l-6,0v3.75h5.35l0,5.82-5.36,0v3.94l6,0v6.19Z"/><path class="cls-3" d="M99.41,281.07h-7l-.06-25.76,12.3,0v6.06l-5.34,0v3.75h5l0,5.82-5,0Z"/><path class="cls-3" d="M107.46,281l-.07-25.76,12.93,0,0,6.06-6,0v3.75h5.36l0,5.82-5.36,0v3.93h6V281Z"/><path class="cls-3" d="M123.36,281l-.07-25.77h6.65l3.51,9c.19.54.4,1.15.65,1.84s.5,1.48.79,2.38l.73,2.27q-.39-3.36-.6-5.74c-.14-1.59-.21-2.93-.21-4l0-5.8h6.64L141.5,281l-6.64,0-3.53-9.47c-.37-1-.7-2-1-2.84s-.56-1.73-.78-2.53q.22,2.73.33,4.74c.07,1.35.1,2.53.11,3.54V281Z"/><path class="cls-3" d="M145.11,280.94,145,255.18l6,0c3.44,0,6.11.91,8,2.75q3.78,3.61,3.8,10.12t-3.16,9.91q-2.72,3-8.1,3Zm6.94-6.24q3.73-.19,3.72-6.45a10.47,10.47,0,0,0-1-4.87,2.89,2.89,0,0,0-2.58-1.8H152Z"/><circle class="cls-1" cx="107.69" cy="495.92" r="97.08"/><path class="cls-3" d="M48,363.34l-.5,9.83A15,15,0,0,1,42,374.42a12.64,12.64,0,0,1-9.62-4.16C29.5,367.13,28,362.71,28,357q0-8,4.07-12.93A13.6,13.6,0,0,1,43,339.17a13.28,13.28,0,0,1,4.55.82l0,9.72a6,6,0,0,0-4.22-2,5,5,0,0,0-4.4,2.42,12.23,12.23,0,0,0-1.57,6.7,16,16,0,0,0,.41,3.71A9,9,0,0,0,39,363.25,5.05,5.05,0,0,0,40.79,365a4.88,4.88,0,0,0,2.47.59A7.13,7.13,0,0,0,48,363.34Z"/><path class="cls-3" d="M65.45,339.72l9.2,0,.06,24.07a10.78,10.78,0,0,1-.94,4.9,9.5,9.5,0,0,1-3.07,3.56,11.78,11.78,0,0,1-7.07,2.13,13,13,0,0,1-7.92-2.31q-4.07-3-4.08-9.52l-.07-22.77,9.2,0,.06,21.95a6.62,6.62,0,0,0,.54,3.15,2.32,2.32,0,0,0,3.65.06,7,7,0,0,0,.5-3.2Z"/><path class="cls-3" d="M95.59,373.68l-16.09,0-.09-34,9.19,0,.07,25.86,6.9,0Z"/><path class="cls-3" d="M109.26,373.65l-9.19,0L100,347.79H94.93l0-8.15,19.53-.06,0,8.16h-5.27Z"/><path class="cls-3" d="M130.71,339.55l9.19,0L140,363.6a10.81,10.81,0,0,1-.93,4.9,9.43,9.43,0,0,1-3.08,3.55,11.68,11.68,0,0,1-7.07,2.14,13,13,0,0,1-7.92-2.32q-4.06-3-4.08-9.51l-.06-22.77,9.19,0,.06,22a6.65,6.65,0,0,0,.55,3.15,1.93,1.93,0,0,0,1.82.92,2,2,0,0,0,1.83-.86,7.27,7.27,0,0,0,.5-3.2Z"/><path class="cls-3" d="M169,373.49l-9.94,0-4.58-12.11a7.31,7.31,0,0,0-.23-.81c-.11-.34-.25-.75-.41-1.22l.07,2.25,0,11.91-9.15,0-.09-34,9.42,0q6.21,0,9.31,2.42,3.93,3.12,3.94,8.9,0,6.17-5.24,8.54ZM153.9,355.25h.61a3.38,3.38,0,0,0,2.65-1.22,4.56,4.56,0,0,0,1.05-3.09q0-3.81-4-3.8h-.33Z"/><path class="cls-3" d="M172,373.48l-.09-34,17.09,0,0,8-7.9,0,0,5,7.07,0,0,7.7h-7.07v5.21l7.89,0,0,8.17Z"/><path class="cls-3" d="M79.86,322.17l-7,0,0-10.91-6.43-14.84,7.26,0L75,300.24c.25.75.47,1.46.67,2.15s.37,1.35.53,2c.25-.95.47-1.77.66-2.45s.35-1.24.49-1.66l1.26-3.86,7.21,0-6,14.87Z"/><path class="cls-3" d="M105.46,309.31a15.9,15.9,0,0,1-2.66,9.58,8.2,8.2,0,0,1-7,3.69,8.76,8.76,0,0,1-6.54-2.8c-2.28-2.38-3.43-5.94-3.44-10.71q0-6.84,3.54-10.47a8.49,8.49,0,0,1,6.28-2.7,8.34,8.34,0,0,1,7.11,3.62Q105.44,303.15,105.46,309.31Zm-7.23.07q0-7-2.49-7c-.82,0-1.47.62-2,1.84a13.34,13.34,0,0,0-.7,5,14.89,14.89,0,0,0,.68,5.05c.46,1.19,1.09,1.79,1.89,1.78s1.45-.59,1.89-1.77A13.54,13.54,0,0,0,98.23,309.38Z"/><path class="cls-3" d="M118.91,296.3l7,0,0,18.23a8.4,8.4,0,0,1-.71,3.71,7.21,7.21,0,0,1-2.33,2.69,8.91,8.91,0,0,1-5.35,1.62,9.91,9.91,0,0,1-6-1.76q-3.07-2.24-3.09-7.2l0-17.24,7,0,.05,16.62a5.08,5.08,0,0,0,.41,2.39,1.75,1.75,0,0,0,2.77,0,5.33,5.33,0,0,0,.37-2.42Z"/><path class="cls-3" d="M147.87,322l-7.53,0-3.46-9.17c0-.15-.1-.36-.18-.61s-.19-.56-.31-.92l.05,1.7,0,9-6.93,0-.07-25.76,7.13,0q4.71,0,7.05,1.83a8.15,8.15,0,0,1,3,6.73,6.48,6.48,0,0,1-4,6.47Zm-11.41-13.8h.47a2.55,2.55,0,0,0,2-.92,3.48,3.48,0,0,0,.8-2.34q0-2.9-3-2.88h-.25Z"/><circle class="cls-4" cx="106.74" cy="496.4" r="77.61"/><path class="cls-4" d="M166.8,496.4c0-36.56-24.74-67.45-58.7-77.49A116.31,116.31,0,0,1,107.29,574h.43C141.88,564.07,166.8,533.09,166.8,496.4Z"/><path class="cls-4" d="M46.56,496.4c0-36.57,24.75-67.47,58.74-77.51l.08-.09a77.61,77.61,0,0,0,.25,155.2C71.48,564.07,46.56,533.09,46.56,496.4Z"/><path class="cls-4" d="M105.3,418.89c-34,10-58.74,40.94-58.74,77.51s24.92,67.67,59.07,77.6h.54a116.31,116.31,0,0,1-.87-155.11Z"/><path class="cls-4" d="M105.63,418.8l-.33.09A116.31,116.31,0,0,0,106.17,574h1.12a116.31,116.31,0,0,0,.81-155.09l-.38-.11-1,0Z"/><path class="cls-5" d="M29.13,496.4s79.28,21.12,155.23,0"/><line class="cls-5" x1="106.74" y1="418.78" x2="106.74" y2="574.01"/></svg>